<?xml version="1.0" encoding="utf-8"?>
<!-- Generator: Adobe Illustrator 19.1.0, SVG Export Plug-In . SVG Version: 6.00 Build 0)  -->
<svg version="1.1" id="Layer_1" xmlns="http://www.w3.org/2000/svg" xmlns:xlink="http://www.w3.org/1999/xlink" x="0px" y="0px"
	 viewBox="-624 386 30 30" style="enable-background:new -624 386 30 30;" xml:space="preserve">
<style type="text/css">
	.st0{fill:#444444;}
</style>
<g>
	<rect x="-623" y="386" class="st0" width="1" height="30"/>
	<rect x="-621" y="386" class="st0" width="1" height="30"/>
	<rect x="-619" y="386" class="st0" width="1" height="30"/>
	<rect x="-617" y="386" class="st0" width="1" height="30"/>
	<rect x="-615" y="386" class="st0" width="1" height="30"/>
	<rect x="-613" y="386" class="st0" width="1" height="30"/>
	<rect x="-611" y="386" class="st0" width="1" height="30"/>
	<rect x="-609" y="386" class="st0" width="1" height="30"/>
	<rect x="-607" y="386" class="st0" width="1" height="30"/>
	<rect x="-605" y="386" class="st0" width="1" height="30"/>
	<rect x="-603" y="386" class="st0" width="1" height="30"/>
	<rect x="-601" y="386" class="st0" width="1" height="30"/>
	<rect x="-599" y="386" class="st0" width="1" height="30"/>
	<rect x="-597" y="386" class="st0" width="1" height="30"/>
	<rect x="-595" y="386" class="st0" width="1" height="30"/>
	<rect x="-624" y="415" class="st0" width="30" height="1"/>
	<rect x="-624" y="413" class="st0" width="30" height="1"/>
	<rect x="-624" y="411" class="st0" width="30" height="1"/>
	<rect x="-624" y="409" class="st0" width="30" height="1"/>
	<rect x="-624" y="407" class="st0" width="30" height="1"/>
	<rect x="-624" y="405" class="st0" width="30" height="1"/>
	<rect x="-624" y="403" class="st0" width="30" height="1"/>
	<rect x="-624" y="401" class="st0" width="30" height="1"/>
	<rect x="-624" y="399" class="st0" width="30" height="1"/>
	<rect x="-624" y="397" class="st0" width="30" height="1"/>
	<rect x="-624" y="395" class="st0" width="30" height="1"/>
	<rect x="-624" y="393" class="st0" width="30" height="1"/>
	<rect x="-624" y="391" class="st0" width="30" height="1"/>
	<rect x="-624" y="389" class="st0" width="30" height="1"/>
	<rect x="-624" y="387" class="st0" width="30" height="1"/>
</g>
</svg>
